<?xml version="1.0" standalone="no"?>
<!DOCTYPE svg PUBLIC "-//W3C//DTD SVG 20010904//EN"
 "http://www.w3.org/TR/2001/REC-SVG-20010904/DTD/svg10.dtd">
<svg version="1.0" xmlns="http://www.w3.org/2000/svg"
 width="500.000000pt" height="692.000000pt" viewBox="0 0 500.000000 692.000000"
 preserveAspectRatio="xMidYMid meet">
<metadata>
Created by potrace 1.15, written by Peter Selinger 2001-2017
</metadata>
<g transform="translate(0.000000,692.000000) scale(0.100000,-0.100000)"
fill="#000000" stroke="none">
<path d="M429 6898 c-242 -85 -398 -303 -399 -555 0 -99 15 -164 60 -258 47
-96 109 -169 192 -225 54 -36 69 -53 110 -128 26 -48 48 -92 48 -99 0 -6 -81
-67 -180 -135 -99 -68 -180 -127 -180 -131 0 -4 66 -103 146 -220 81 -117 164
-237 185 -267 l37 -55 12 -195 c38 -659 184 -1209 477 -1796 l86 -171 -209
-285 -209 -285 -304 -1042 c-167 -572 -301 -1044 -298 -1047 3 -3 396 289 874
650 l868 655 80 124 79 124 123 -104 c249 -210 328 -257 454 -270 70 -7 167
10 229 42 59 30 148 96 288 213 65 54 117 91 120 85 4 -6 36 -56 72 -112 l65
-102 868 -655 c478 -361 871 -653 874 -650 4 3 -131 475 -298 1048 l-304 1042
-197 268 -196 268 97 192 c54 106 113 229 131 273 224 542 336 1046 356 1614
l7 176 163 237 c90 130 164 241 164 245 0 4 -81 63 -180 131 -99 68 -180 129
-180 135 0 7 22 51 48 99 41 75 56 92 110 128 83 56 145 129 192 225 45 94 60
159 60 258 -1 252 -159 472 -399 554 -98 33 -260 32 -369 -2 -92 -29 -198 -99
-261 -172 -53 -62 -109 -175 -122 -249 -14 -75 -21 -87 -95 -168 l-60 -66
-189 130 c-104 71 -190 130 -191 130 -6 0 -497 -716 -501 -731 -3 -10 21 -39
67 -80 l71 -65 -108 9 c-107 9 -621 2 -698 -9 l-40 -6 73 68 c47 42 72 73 69
83 -2 9 -115 177 -251 374 -161 232 -252 355 -259 350 -7 -3 -89 -60 -183
-124 -94 -65 -176 -119 -182 -121 -6 -2 -42 32 -81 76 -51 56 -71 86 -71 106
0 38 -37 147 -70 205 -62 109 -170 202 -292 252 -54 22 -81 26 -198 30 -121 3
-142 1 -201 -19z m306 -33 c209 -53 360 -210 405 -421 15 -70 19 -78 100 -169
46 -53 89 -94 95 -91 6 2 90 58 187 125 96 67 178 121 181 121 5 0 426 -605
452 -649 6 -11 -20 -42 -101 -119 l-109 -103 50 5 c205 23 312 28 540 28 143
-1 318 -7 389 -15 l129 -13 -108 101 c-79 74 -106 105 -100 116 53 90 450 649
459 646 6 -3 88 -57 181 -122 94 -65 175 -119 181 -122 5 -2 48 39 94 92 82
93 85 98 102 175 64 297 355 483 647 415 301 -71 480 -382 392 -681 -32 -110
-120 -226 -223 -293 -57 -37 -65 -47 -124 -159 l-64 -120 185 -127 185 -127
-96 -140 c-53 -77 -124 -180 -158 -229 l-63 -90 -6 -207 c-14 -493 -117 -986
-310 -1477 -28 -71 -102 -231 -164 -355 -62 -124 -113 -228 -113 -233 0 -4 88
-128 196 -275 108 -147 200 -276 205 -287 16 -34 569 -1938 565 -1943 -2 -2
-369 272 -815 608 l-810 612 -83 129 c-46 71 -86 129 -90 129 -3 0 -51 -39
-105 -86 -133 -117 -287 -232 -343 -256 -64 -28 -182 -35 -252 -14 -86 25
-246 140 -447 321 l-74 67 -95 -146 -95 -146 -809 -611 c-445 -336 -811 -609
-814 -607 -4 5 549 1908 565 1943 5 11 104 150 221 309 l212 289 -32 56 c-61
110 -180 359 -231 486 -187 469 -295 969 -315 1473 l-7 163 -85 122 c-47 67
-127 183 -178 258 l-93 136 184 127 185 127 -64 120 c-59 113 -67 123 -124
160 -103 67 -189 181 -224 293 -31 103 -27 245 12 348 92 246 375 397 625 333z"/>
<path d="M470 6758 c-157 -55 -264 -184 -293 -354 -29 -171 64 -356 227 -451
46 -27 55 -38 137 -193 49 -91 88 -169 88 -175 0 -5 -78 -64 -175 -130 -110
-75 -173 -124 -169 -133 2 -7 69 -106 148 -220 79 -114 149 -216 154 -227 6
-11 13 -103 16 -205 18 -581 173 -1186 441 -1726 47 -93 100 -196 119 -229
l34 -59 -122 -166 c-67 -91 -170 -232 -230 -314 l-110 -150 -241 -825 c-133
-454 -240 -828 -238 -829 1 -2 312 230 690 515 l688 519 114 175 c62 96 117
180 122 188 6 11 30 -6 101 -73 120 -113 373 -316 421 -339 88 -41 194 -39
273 7 60 36 274 208 377 305 47 44 90 81 95 81 4 -1 57 -78 118 -171 l109
-171 689 -520 c379 -286 690 -518 691 -516 5 6 -480 1656 -490 1669 -39 50
-424 579 -424 583 0 3 35 67 77 143 333 595 522 1298 537 1990 l3 173 132 191
c73 105 135 197 137 203 3 7 -73 65 -170 131 -96 66 -175 125 -175 130 0 6 39
84 88 175 82 155 91 166 137 193 164 95 258 286 226 457 -43 234 -229 381
-466 368 -72 -4 -96 -10 -159 -41 -133 -66 -228 -197 -245 -339 l-8 -65 -128
-141 c-104 -114 -131 -140 -145 -132 -9 5 -90 61 -181 124 -127 89 -168 112
-177 103 -7 -7 -88 -122 -182 -257 l-170 -245 62 -60 c270 -259 249 -235 231
-262 -13 -21 -21 -24 -47 -19 -162 29 -487 56 -683 56 -172 0 -413 -18 -594
-45 l-155 -23 -24 27 -24 26 155 150 156 150 -169 245 c-94 135 -175 250 -182
257 -9 9 -50 -15 -177 -104 -91 -63 -172 -119 -181 -124 -14 -7 -42 19 -145
133 l-128 141 -8 65 c-17 142 -112 273 -246 340 -68 33 -83 37 -171 40 -80 2
-107 -1 -161 -20z m214 -210 c23 -7 59 -30 83 -54 171 -171 -35 -454 -252
-346 -127 62 -160 231 -66 335 63 70 143 92 235 65z m3792 -7 c110 -50 160
-187 106 -296 -64 -132 -243 -162 -344 -58 -90 92 -92 220 -5 307 66 65 162
84 243 47z m-2792 -637 c31 -47 56 -89 54 -94 -2 -5 -104 -105 -228 -222
l-225 -214 -288 -139 c-160 -76 -292 -134 -295 -129 -85 121 -113 167 -105
175 9 9 157 112 501 349 99 69 257 177 349 242 92 64 171 117 174 117 3 1 32
-38 63 -85z m1888 -46 c174 -119 560 -386 761 -525 42 -30 77 -57 77 -59 0 -4
-61 -95 -111 -168 -4 -5 -137 54 -295 130 l-289 138 -225 214 c-124 118 -226
217 -228 222 -3 8 107 180 114 180 2 0 90 -59 196 -132z m-2014 -517 l80 -109
-97 -24 -98 -25 -35 51 -35 51 49 83 c27 45 50 82 53 82 2 0 39 -49 83 -109z
m2025 19 l44 -76 -29 -42 c-16 -23 -35 -42 -43 -42 -15 0 -176 37 -180 42 -2
2 31 49 72 106 42 57 79 100 84 95 4 -4 27 -42 52 -83z m-2205 -142 l30 -43
-97 -31 -96 -30 -37 55 -38 56 93 16 c50 9 97 17 104 18 7 0 25 -18 41 -41z
m2390 24 l92 -17 -26 -40 c-15 -22 -30 -44 -34 -48 -5 -6 -185 37 -197 47 -7
6 50 76 60 75 7 0 54 -8 105 -17z m-863 -32 c398 -41 785 -137 1150 -287 60
-24 112 -47 115 -50 3 -2 4 -59 2 -126 -26 -1110 -530 -2192 -1362 -2922 -140
-123 -271 -225 -288 -225 -21 0 -198 141 -343 274 -566 514 -984 1210 -1179
1961 -82 317 -122 597 -124 869 l-1 169 105 44 c387 163 840 270 1280 303 136
10 503 4 645 -10z m-1311 -2844 c6 -9 -37 -80 -148 -241 -87 -125 -160 -234
-162 -240 -3 -7 1 -15 9 -18 9 -3 65 71 171 224 86 126 160 229 164 229 4 0
12 -8 18 -18 6 -9 47 -60 91 -113 l80 -95 -174 -266 -174 -267 -405 -306
c-222 -168 -405 -305 -407 -305 -2 0 60 220 139 489 l143 489 246 336 247 336
77 -110 c42 -61 80 -117 85 -124z m2236 -122 l232 -317 142 -488 c79 -269 141
-489 139 -489 -1 0 -185 138 -408 306 l-404 306 -162 248 c-89 136 -163 250
-163 253 -1 8 178 225 186 226 4 1 73 -95 154 -213 98 -142 152 -212 162 -209
7 3 11 11 8 18 -2 7 -70 108 -151 224 -80 117 -145 215 -143 219 9 20 164 232
169 232 4 0 111 -142 239 -316z"/>
<path d="M2275 5134 c-423 -34 -833 -128 -1219 -280 l-99 -39 6 -155 c30 -803
340 -1625 863 -2280 130 -163 438 -474 588 -593 l108 -86 82 66 c442 357 798
794 1051 1293 261 517 402 1058 428 1645 l5 111 -131 51 c-321 125 -645 205
-997 248 -129 16 -572 28 -685 19z m-385 -669 l0 -165 -355 0 -355 0 0 165 0
165 355 0 355 0 0 -165z m1970 0 l0 -165 -355 0 -355 0 0 158 c0 87 3 162 7
165 3 4 163 7 355 7 l348 0 0 -165z m-1812 -452 l2 -163 -335 0 -335 0 0 158
c0 87 3 162 7 165 4 4 153 6 332 5 l326 -3 3 -162z m1612 2 l0 -165 -330 0
-330 0 0 165 0 165 330 0 330 0 0 -165z m-1440 -450 l0 -165 -280 0 -280 0 0
165 0 165 280 0 280 0 0 -165z m1168 -2 l2 -163 -285 0 -285 0 0 165 0 165
283 -2 282 -3 3 -162z m-960 -450 l2 -163 -270 0 -270 0 0 158 c0 87 3 162 7
165 4 4 124 6 267 5 l261 -3 3 -162z m720 0 l2 -163 -265 0 -265 0 0 165 0
165 263 -2 262 -3 3 -162z m-360 -495 l-3 -163 -262 -3 -263 -2 0 165 0 165
265 0 265 0 -2 -162z"/>
</g>
</svg>
